<?xml version="1.0" encoding="UTF-8"?>
<svg width="136px" height="45px" viewBox="0 0 136 45" version="1.1" xmlns="http://www.w3.org/2000/svg" xmlns:xlink="http://www.w3.org/1999/xlink">
    <!-- Generator: Sketch 57.1 (83088) - https://sketch.com -->
    <title>AEMO</title>
    <desc>Corporate Logo</desc>
    <g id="Mobile" stroke="none" stroke-width="1" fill="none" fill-rule="evenodd">
        <g id="1200" transform="translate(-67.000000, -90.000000)" fill="#6D3075">
            <g id="Group-12-Copy-4" transform="translate(67.000000, 90.000000)">
                <path d="M37.4857846,15.6 C35.9314989,15.81 34.3727297,16.0695 32.8079824,16.38 C23.0488615,18.3 15.1578725,21.81 10.2857846,25.875 C7.83629011,27.717 6.03092747,30.288 5.12974066,33.225 C5.5482022,30.315 7.47611429,27.405 10.674356,24.735 C15.7855648,20.445 24.1249055,16.785 34.3772132,14.76 L35.6624879,14.52 L35.139411,14.235 L34.1829275,14.415 C23.721389,16.47 15.3073231,20.205 10.0914989,24.57 C7.47611429,26.535 5.5496967,29.2815 4.59171868,32.4135 C5.04007033,29.31 7.11743297,26.205 10.5697407,23.415 C15.561389,19.23 23.4224879,15.6 33.1218286,13.35 L32.4791912,13.095 C22.8097407,15.39 14.9785319,19.095 9.95699341,23.25 C7.14283956,25.3005 5.05053187,28.194 3.97897143,31.515 C4.45721319,28.2 6.68402637,24.87 10.3306198,21.825 C16.2144879,17.322 22.9457407,14.0625 30.1178725,12.24 L29.3257846,12.015 C22.2089495,13.893 15.5374769,17.1765 9.70292747,21.675 C6.70046593,23.925 4.49158681,27.078 3.39611429,30.675 C3.90424615,27.12 6.29545495,23.58 10.1811692,20.31 C15.1324659,16.413 20.7278945,13.416 26.7104,11.46 L25.7090813,11.31 C19.8371692,13.281 14.3478505,16.248 9.47875165,20.085 C6.27453187,22.4865 3.91321319,25.8495 2.73853187,29.685 C3.2914989,25.89 5.83215824,22.095 10.0018286,18.6 C13.8965099,15.498 18.2141363,12.972 22.8246857,11.1 L21.539411,11.1 C17.1201582,12.9735 12.9818725,15.4515 9.23963077,18.465 C5.38380659,21.705 2.87303736,25.215 2.03611429,28.74 C2.61897143,24.69 5.33897143,20.625 9.80754286,16.89 C12.4528176,14.7165 15.3177846,12.8265 18.3561143,11.25 L17.2202901,11.385 L16.6822681,11.46 C13.9577846,12.897 11.3767736,14.589 8.97061978,16.515 C4.86072967,20.025 2.18556484,23.775 1.28886154,27.555 C1.91655385,23.22 4.83083956,18.87 9.59831209,14.865 C10.6893011,13.95 11.9596308,13.035 13.2000703,12.15 C12.3765978,12.387 11.5680703,12.6735 10.7789714,13.005 C10.0287297,13.4475 9.34125714,13.9875 8.7314989,14.61 C-3.10498462,23.925 -2.98542418,37.26 9.56842198,42.3 L9.29941099,42.015 C8.98108132,41.6745 8.68666374,41.34 8.41765275,41.01 L8.1336967,40.65 C7.84974066,40.275 7.59567473,39.9 7.3714989,39.5385 L7.11743297,39.12 C6.89774066,38.727 6.70345495,38.322 6.53457582,37.905 L6.34029011,37.41 C6.18336703,36.9555 6.06380659,36.489 5.98160879,36.015 C5.99655385,35.811 5.96516923,35.6055 5.89193846,35.4135 C5.85158681,34.956 5.85158681,34.494 5.89193846,34.035 C5.85457582,33.7905 5.85457582,33.543 5.89193846,33.3 C5.96666374,32.826 6.08174066,32.3595 6.23567473,31.905 C6.32385055,31.6245 6.42996044,31.35 6.54952088,31.08 C6.79013626,30.5655 7.06064176,30.0645 7.35655385,29.58 C8.28165275,28.191 9.42793846,26.9655 10.7490813,25.95 C17.3308835,21.1845 24.9125099,17.9925 32.9125978,16.62 C34.5565538,16.29 36.2005099,16.035 37.8444659,15.81 L37.4110593,15.525" id="Fill-1"></path>
                <path d="M8.53706374,28.75515 C16.0095912,26.64015 32.7928879,26.40015 35.527833,35.78865 C31.2505582,33.44865 26.2110857,32.94015 21.5542066,34.38015 C16.8913495,35.79915 12.7396132,38.54565 9.59816264,42.28515 L9.29926154,42.01515 C12.4616352,38.19165 16.6866022,35.39865 21.4346462,33.99015 C24.4400967,33.11415 27.6069538,32.95065 30.6856352,33.51015 C27.1765363,32.69565 23.5149978,32.80365 20.0597011,33.82515 C15.6090637,35.13465 11.5903385,37.61565 8.4175033,41.01015 L8.13354725,40.65015 C11.3527121,37.22265 15.4222505,34.71615 19.9251956,33.39015 C23.1622945,32.43615 26.5757451,32.25615 29.8935473,32.86515 C26.1423385,31.99365 22.2312176,32.10765 18.5353055,33.19515 C14.4044923,34.41165 10.6174154,36.58515 7.47596484,39.53865 L7.2218989,39.12015 C10.4126681,36.15015 14.2520527,33.96765 18.4306901,32.74515 C21.8665582,31.74015 25.4892396,31.55115 29.011789,32.19015 C24.9975473,31.26315 20.8144264,31.38615 16.8614593,32.55015 C13.1251956,33.63465 9.64449231,35.46165 6.6240967,37.92015 L6.42981099,37.42515 C9.47112967,34.97715 12.966778,33.15765 16.7120088,32.07015 C20.3660747,31.02015 24.2114374,30.83115 27.9506901,31.51515 C23.6569758,30.51615 19.1779429,30.64515 14.9484923,31.89015 C11.7577231,32.77065 8.72836044,34.16265 5.98145934,36.01515 C5.9964044,35.81115 5.96501978,35.60565 5.89178901,35.41365 C8.64018462,33.55065 11.6665582,32.13765 14.858822,31.22865 C18.7908659,30.08265 22.9351297,29.86665 26.9643165,30.59865 C22.3731956,29.53515 17.587789,29.67465 13.0654154,31.00515 C10.5830418,31.72965 8.19183297,32.73615 5.93662418,34.00515 C5.91420659,33.75915 5.92915165,33.51165 5.98145934,33.27015 C8.16792088,32.07165 10.4784264,31.11615 12.8711297,30.42015 C17.0751736,29.19165 21.5048879,28.96065 25.8135473,29.74515 C20.9011077,28.60515 15.7809319,28.75515 10.9432176,30.18015 C9.35904176,30.63615 7.81073407,31.20915 6.31025055,31.89015 C6.39992088,31.60815 6.50453626,31.33365 6.6240967,31.06515 C7.97662418,30.47565 9.36352527,29.97465 10.778822,29.56515 C15.278778,28.24965 20.0223385,28.00365 24.6328879,28.84515 C19.3797011,27.62715 13.903833,27.78615 8.73134945,29.31015 L7.32651429,29.74515 L7.47596484,29.67015 C7.6298989,29.41965 7.80027253,29.17815 7.9840967,28.95015 L8.53706374,28.75515 Z" id="Fill-3"></path>
                <path d="M44.3606593,7.79985 C38.3826374,1.40985 33.8991209,0.20985 32.4046154,-0.00015000001 C40.3523956,4.69935 43.3234725,14.77035 39.2046154,23.05485 C37.864044,25.67535 36.1304176,28.07385 34.0635165,30.16485 L34.467033,30.65985 C36.6729231,28.46535 38.5201319,25.93335 39.9369231,23.15985 C41.808044,19.65285 42.4342418,15.61185 41.7153846,11.69985 C42.8721319,16.12785 42.3057143,20.83185 40.1312088,24.85485 C38.8474286,27.37185 37.2184176,29.69385 35.289011,31.75485 L35.6775824,32.35485 C37.7758681,30.17235 39.5438681,27.68985 40.9232967,24.98985 C42.913978,21.24735 43.5835165,16.93785 42.8213187,12.76485 C44.0483077,17.49735 43.440044,22.52085 41.1175824,26.81985 C39.8502418,29.30835 38.2630769,31.61835 36.3949451,33.68985 C36.5145055,33.92985 36.6236044,34.17435 36.7237363,34.42485 C38.8085714,32.18235 40.5690989,29.65935 41.9545055,26.92485 C44.0946374,22.91385 44.8105055,18.28935 43.987033,13.81485 C45.2917363,18.86685 44.6401319,24.22635 42.1637363,28.81485 C40.879956,31.41285 39.2673846,33.83235 37.3663736,36.01485 C37.3663736,36.32985 37.5158242,36.64485 37.5756044,36.97485 C39.7934505,34.59435 41.6705495,31.91385 43.1501099,29.00985 C45.4053187,24.71685 46.1421099,19.78335 45.2424176,15.01485 C46.6756484,20.43585 45.9971429,26.20335 43.3443956,31.13985 C41.831956,34.11285 39.9204835,36.86235 37.6652747,39.31485 C37.6443516,39.77835 37.595033,40.23735 37.5158242,40.69485 C40.2343297,37.93335 42.5164396,34.77285 44.2859341,31.31985 C46.7354286,26.73135 47.5574066,21.44085 46.6173626,16.31985 C48.1223297,22.10685 47.3795604,28.25085 44.54,33.50985 C42.3789451,37.69035 39.5244396,41.47035 36.096044,44.68485 C36.096044,44.80485 36.4696703,44.84985 37.2318681,44.78985 C40.6034725,41.57685 43.4176264,37.81935 45.5562637,33.67485 C48.1746374,28.76835 49.0549011,23.11485 48.0520879,17.63985 C49.6467253,23.83185 48.8396923,30.39885 45.7953846,36.01485 C44.3173187,38.95035 42.491033,41.69535 40.3553846,44.18985 C40.9083516,44.02485 41.5061538,43.82985 42.103956,43.60485 C43.9511648,41.33385 45.5487912,38.86935 46.8714286,36.25485 C49.6691429,31.00785 50.6076923,24.96285 49.5316484,19.10985 C51.2548132,25.73535 50.4044396,32.77035 47.1553846,38.78985 C46.6069011,39.85035 46.0195604,40.92435 45.3918681,42.01485 C46.1884396,41.52285 46.9431648,40.96635 47.6485714,40.34985 C47.8876923,39.91485 48.1268132,39.46485 48.350989,39.01485 C53.7162637,28.22985 52.8345055,16.97985 44.3606593,7.84485" id="Fill-5"></path>
                <path d="M61.7562549,26.49045 L65.044167,18.85545 L68.3320791,26.49045 L61.7562549,26.49045 Z M65.044167,13.39545 L55.6885626,34.97895 L58.2890022,34.97895 L60.9791121,28.62045 L69.0344967,28.62045 L71.7395516,34.97895 L74.4296615,34.97895 L65.044167,13.39545 Z M132.132519,32.29545 C127.787991,36.55995 120.844519,36.55995 116.499991,32.29545 C112.258585,28.12995 112.182365,21.30195 116.332607,17.04345 C116.334101,17.04195 116.335596,17.04195 116.335596,17.04045 L116.499991,16.87545 C120.860958,12.64995 127.771552,12.64995 132.132519,16.87545 C136.372431,21.08445 136.412782,27.94545 132.222189,32.20545 L132.132519,32.29545 L132.132519,32.29545 Z M108.504536,13.35 L112.689152,34.95 L110.297943,34.95 L107.607833,20.85 L101.181459,35.7 L94.7550857,20.85 L92.2144264,34.95 L89.8232176,34.95 L94.007833,13.35 L101.181459,30.6 L108.504536,13.35 Z M87.4320088,14.25 L87.4320088,16.5 L79.062778,16.5 L79.062778,22.35 L87.4320088,22.35 L87.4320088,24.75 L79.062778,24.75 L79.062778,32.7 L87.4320088,32.7 L87.4320088,34.95 L76.5221187,34.95 L76.5221187,14.25 L87.4320088,14.25 Z M124.370057,16.08645 C129.041881,16.14195 132.785618,19.98645 132.730321,24.67545 C132.740782,26.92845 131.845574,29.08995 130.249442,30.67545 L130.249442,30.67545 L130.129881,30.79545 C128.559156,32.29395 126.472826,33.1324504 124.304299,33.1324504 C119.632475,33.13395 115.843903,29.33445 115.842409,24.64545 C115.825969,22.35945 116.719684,20.16195 118.323288,18.54045 C119.931376,16.94295 122.10887,16.05945 124.370057,16.08645 Z" id="Fill-9"></path>
            </g>
        </g>
    </g>
</svg>