<svg width="512" height="512" viewBox="0 0 512 512" fill="none" xmlns="http://www.w3.org/2000/svg">
<g clip-path="url(#clip0_14190_10687)">
<path d="M435.439 70.1087C387.864 24.1437 321.674 -1.97282 256.517 0.116501C288.578 1.16116 320.639 8.47378 350.632 22.0544C379.591 35.6349 406.481 54.4388 428.199 77.4214C472.671 123.386 497.493 187.111 496.459 250.835C495.424 282.175 489.219 314.559 476.808 343.81C464.398 373.06 446.816 399.177 425.097 422.159C380.625 467.08 318.571 492.151 256.517 492.151C194.463 492.151 132.409 467.08 87.9374 422.159C66.2186 400.221 47.6024 373.06 36.2258 343.81C23.8151 314.559 16.5755 282.175 16.5755 250.835C15.5412 187.111 40.3628 123.386 84.8347 77.4214C106.554 54.4388 133.444 35.6349 162.402 22.0544C191.361 8.47378 223.422 1.16116 256.517 0.116501C191.361 -1.97282 125.17 24.1437 77.5951 70.1087C30.0205 116.074 1.06199 182.932 0.0277618 250.835C-1.00647 318.738 26.9178 386.641 73.4582 434.695C121.033 483.794 188.258 512 255.483 512C323.742 512 389.933 483.794 437.508 434.695C485.082 386.641 513.006 318.738 511.972 250.835C511.972 182.932 483.014 117.118 435.439 70.1087Z" fill="#E8EBF8"/>
<path d="M433.686 235.407L429.378 248.514L416.122 252.547C414.133 253.219 413.802 255.908 415.459 256.916L426.395 264.982L426.064 278.761C426.064 280.778 428.384 282.122 430.041 280.778L441.308 272.712L454.233 277.417C456.222 278.089 458.21 276.409 457.547 274.392L453.239 261.285L461.524 250.195C462.85 248.514 461.524 246.162 459.536 246.162H445.948L438.326 234.735C437 233.055 434.349 233.391 433.686 235.407Z" fill="#FDCC00"/>
<path d="M409.856 143.067L405.548 156.174L392.292 160.207C390.303 160.879 389.972 163.568 391.629 164.576L402.565 172.642L402.234 186.421C402.234 188.438 404.553 189.782 406.21 188.438L417.478 180.372L430.403 185.077C432.391 185.749 434.38 184.069 433.717 182.052L429.409 168.945L437.694 157.855C439.019 156.174 437.694 153.822 435.705 153.822H422.118L414.496 142.395C413.17 140.715 410.519 141.051 409.856 143.067Z" fill="#FDCC00"/>
<path d="M344.324 77.5354L340.015 90.6424L326.759 94.6753C324.771 95.3475 324.439 98.0361 326.096 99.0443L337.033 107.11L336.701 120.889C336.701 122.906 339.021 124.25 340.678 122.906L351.946 114.84L364.871 119.545C366.859 120.217 368.847 118.537 368.185 116.52L363.876 103.413L372.161 92.3228C373.487 90.6424 372.161 88.2899 370.173 88.2899H356.586L348.963 76.8633C347.638 75.1829 344.986 75.5189 344.324 77.5354Z" fill="#FDCC00"/>
<path d="M69.2881 235.407L64.9799 248.514L51.7238 252.547C49.7353 253.219 49.4039 255.908 51.0609 256.916L61.9973 264.982L61.6658 278.761C61.6658 280.778 63.9857 282.122 65.6427 280.778L76.9104 272.712L89.8351 277.417C91.8235 278.089 93.8119 276.409 93.1491 274.392L88.8409 261.285L97.126 250.195C98.4516 248.514 97.126 246.162 95.1376 246.162H81.55L73.9278 234.735C72.6021 233.055 69.9509 233.391 69.2881 235.407Z" fill="#FDCC00"/>
<path d="M94.1098 143.067L89.8015 156.174L76.5454 160.207C74.557 160.879 74.2256 163.568 75.8826 164.576L86.8189 172.642L86.4875 186.421C86.4875 188.438 88.8073 189.782 90.4644 188.438L101.732 180.372L114.657 185.077C116.645 185.749 118.634 184.069 117.971 182.052L113.663 168.945L121.948 157.855C123.273 156.174 121.948 153.822 119.959 153.822H106.372L98.7494 142.395C97.4238 140.715 94.7726 141.051 94.1098 143.067Z" fill="#FDCC00"/>
<path d="M159.642 77.5354L155.334 90.6424L142.078 94.6753C140.089 95.3475 139.758 98.0361 141.415 99.0443L152.351 107.11L152.02 120.889C152.02 122.906 154.34 124.25 155.997 122.906L167.264 114.84L180.189 119.545C182.177 120.217 184.166 118.537 183.503 116.52L179.195 103.413L187.48 92.3228C188.805 90.6424 187.48 88.2899 185.491 88.2899H171.904L164.282 76.8633C162.956 75.1829 160.305 75.5189 159.642 77.5354Z" fill="#FDCC00"/>
<path d="M253.97 47.7481L249.661 60.8551L236.405 64.888C234.417 65.5601 234.086 68.2488 235.743 69.257L246.679 77.3228L246.347 91.102C246.347 93.1184 248.667 94.4627 250.324 93.1184L261.592 85.0526L274.517 89.7577C276.505 90.4298 278.494 88.7494 277.831 86.733L273.522 73.626L281.808 62.5354C283.133 60.8551 281.808 58.5025 279.819 58.5025H266.232L258.609 47.0759C257.284 45.3955 254.633 45.7316 253.97 47.7481Z" fill="#FDCC00"/>
<path d="M253.97 420.088L249.661 433.195L236.405 437.228C234.417 437.901 234.086 440.589 235.743 441.597L246.679 449.663L246.347 463.442C246.347 465.459 248.667 466.803 250.324 465.459L261.592 457.393L274.517 462.098C276.505 462.77 278.494 461.09 277.831 459.073L273.522 445.966L281.808 434.876C283.133 433.195 281.808 430.843 279.819 430.843H266.232L258.609 419.416C257.284 417.736 254.633 418.072 253.97 420.088Z" fill="#FDCC00"/>
<path d="M344.324 390.301L340.015 403.408L326.759 407.441C324.771 408.113 324.439 410.802 326.096 411.81L337.033 419.876L336.701 433.655C336.701 435.672 339.021 437.016 340.678 435.672L351.946 427.606L364.871 432.311C366.859 432.983 368.847 431.303 368.185 429.286L363.876 416.179L372.161 405.089C373.487 403.408 372.161 401.056 370.173 401.056H356.586L348.963 389.629C347.638 387.949 344.986 388.285 344.324 390.301Z" fill="#FDCC00"/>
<path d="M159.642 390.301L155.334 403.408L142.078 407.441C140.089 408.113 139.758 410.802 141.415 411.81L152.351 419.876L152.02 433.655C152.02 435.672 154.34 437.016 155.997 435.672L167.264 427.606L180.189 432.311C182.177 432.983 184.166 431.303 183.503 429.286L179.195 416.179L187.48 405.089C188.805 403.408 187.48 401.056 185.491 401.056H171.904L164.282 389.629C162.956 387.949 160.305 388.285 159.642 390.301Z" fill="#FDCC00"/>
<path d="M409.856 326.755L405.548 339.862L392.292 343.895C390.303 344.567 389.972 347.256 391.629 348.264L402.565 356.33L402.234 370.109C402.234 372.126 404.553 373.47 406.21 372.126L417.478 364.06L430.403 368.765C432.391 369.437 434.38 367.757 433.717 365.74L429.409 352.633L437.694 341.543C439.019 339.862 437.694 337.51 435.705 337.51H422.118L414.496 326.083C413.17 324.403 410.519 324.739 409.856 326.755Z" fill="#FDCC00"/>
<path d="M94.1098 326.755L89.8015 339.862L76.5454 343.895C74.557 344.567 74.2256 347.256 75.8826 348.264L86.8189 356.33L86.4875 370.109C86.4875 372.126 88.8073 373.47 90.4644 372.126L101.732 364.06L114.657 368.765C116.645 369.437 118.634 367.757 117.971 365.74L113.663 352.633L121.948 341.543C123.273 339.862 121.948 337.51 119.959 337.51H106.372L98.7494 326.083C97.4238 324.403 94.7726 324.739 94.1098 326.755Z" fill="#FDCC00"/>
<path d="M227.151 247.413H216.792C216.496 245.714 215.952 244.209 215.158 242.898C214.364 241.568 213.376 240.442 212.194 239.518C211.012 238.595 209.664 237.903 208.15 237.441C206.654 236.961 205.038 236.721 203.303 236.721C200.219 236.721 197.486 237.496 195.104 239.048C192.722 240.58 190.857 242.833 189.509 245.806C188.161 248.761 187.487 252.371 187.487 256.636C187.487 260.976 188.161 264.632 189.509 267.605C190.875 270.56 192.74 272.794 195.104 274.308C197.486 275.804 200.21 276.552 203.275 276.552C204.974 276.552 206.562 276.33 208.039 275.887C209.535 275.425 210.874 274.751 212.055 273.865C213.256 272.979 214.262 271.889 215.075 270.597C215.906 269.304 216.478 267.827 216.792 266.165L227.151 266.22C226.763 268.916 225.923 271.446 224.631 273.81C223.357 276.173 221.685 278.26 219.617 280.07C217.549 281.861 215.13 283.264 212.36 284.28C209.59 285.277 206.516 285.776 203.136 285.776C198.151 285.776 193.7 284.621 189.786 282.313C185.871 280.005 182.787 276.672 180.534 272.314C178.281 267.956 177.155 262.73 177.155 256.636C177.155 250.524 178.29 245.298 180.562 240.959C182.833 236.601 185.926 233.268 189.841 230.96C193.756 228.651 198.188 227.497 203.136 227.497C206.294 227.497 209.23 227.94 211.945 228.827C214.659 229.713 217.078 231.015 219.202 232.732C221.325 234.431 223.07 236.518 224.437 238.992C225.822 241.448 226.727 244.255 227.151 247.413ZM236.562 285V228.273H257.835C262.193 228.273 265.849 229.03 268.803 230.544C271.776 232.058 274.02 234.182 275.534 236.915C277.067 239.629 277.833 242.796 277.833 246.415C277.833 250.053 277.058 253.211 275.507 255.888C273.974 258.548 271.712 260.607 268.72 262.065C265.729 263.506 262.054 264.226 257.696 264.226H242.545V255.695H256.311C258.86 255.695 260.946 255.344 262.571 254.642C264.196 253.922 265.396 252.879 266.172 251.512C266.966 250.127 267.363 248.428 267.363 246.415C267.363 244.403 266.966 242.685 266.172 241.263C265.378 239.823 264.169 238.734 262.544 237.995C260.919 237.238 258.823 236.859 256.256 236.859H246.838V285H236.562ZM265.867 259.295L279.911 285H268.443L254.649 259.295H265.867ZM294.577 285H283.608L303.579 228.273H316.265L336.264 285H325.295L310.144 239.906H309.701L294.577 285ZM294.937 262.758H324.852V271.012H294.937V262.758Z" fill="#223E92"/>
</g>
<defs>
<clipPath id="clip0_14190_10687">
<rect width="512" height="512" fill="white"/>
</clipPath>
</defs>
</svg>
